<!-- icon666.com - MILLIONS vector ICONS FREE --><svg viewBox="-48 0 512 512" xmlns="http://www.w3.org/2000/svg"><path d="m400 64v384c0 26.507812-21.492188 48-48 48h-288c-26.507812 0-48-21.492188-48-48v-336l96-96h240c26.507812 0 48 21.492188 48 48zm0 0" fill="#7c5eff"></path><path d="m240 176c0 16-21.28125 16-21.28125 16h-21.4375c-21.28125 0-21.28125-16-21.28125-16v-64h64zm0 0" fill="#fff"></path><path d="m304 144v96c-.050781 17.652344-14.347656 31.949219-32 32h-128c-17.652344-.050781-31.949219-14.347656-32-32v-96c.050781-17.652344 14.347656-31.949219 32-32h32v64s0 16 21.28125 16h21.4375s21.28125 0 21.28125-16v-64h32c17.652344.050781 31.949219 14.347656 32 32zm0 0" fill="#f0888f"></path><g fill="#37284d"><path d="m352 0h-240c-4.242188 0-8.3125 1.6875-11.3125 4.6875l-96 96c-3 3-4.6875 7.070312-4.6875 11.3125v336c0 35.347656 28.652344 64 64 64h288c35.347656 0 64-28.652344 64-64v-384c0-35.347656-28.652344-64-64-64zm32 448c0 17.671875-14.328125 32-32 32h-288c-17.671875 0-32-14.328125-32-32v-329.375l86.625-86.625h233.375c17.671875 0 32 14.328125 32 32zm0 0"></path><path d="m304 336h-128c-8.835938 0-16 7.164062-16 16s7.164062 16 16 16h128c8.835938 0 16-7.164062 16-16s-7.164062-16-16-16zm0 0"></path><path d="m304 400h-128c-8.835938 0-16 7.164062-16 16s7.164062 16 16 16h128c8.835938 0 16-7.164062 16-16s-7.164062-16-16-16zm0 0"></path><path d="m123.359375 340.640625c-6.414063-5.921875-16.304687-5.921875-22.71875 0-1.414063 1.554687-2.550781 3.339844-3.359375 5.28125-1.707031 3.871094-1.707031 8.285156 0 12.15625.8125 1.9375 1.949219 3.722656 3.359375 5.28125 6.308594 6.1875 16.410156 6.1875 22.71875 0 1.410156-1.558594 2.546875-3.34375 3.359375-5.28125 1.707031-3.871094 1.707031-8.285156 0-12.15625-.773438-1.960937-1.914062-3.753906-3.359375-5.28125zm0 0"></path><path d="m123.359375 404.640625c-6.414063-5.921875-16.304687-5.921875-22.71875 0-1.445313 1.527344-2.585937 3.320313-3.359375 5.28125-1.707031 3.871094-1.707031 8.285156 0 12.15625.8125 1.9375 1.949219 3.722656 3.359375 5.28125 6.308594 6.1875 16.410156 6.1875 22.71875 0 1.410156-1.558594 2.546875-3.34375 3.359375-5.28125 1.707031-3.871094 1.707031-8.285156 0-12.15625-.773438-1.960937-1.914062-3.753906-3.359375-5.28125zm0 0"></path><path d="m272 96h-128c-26.507812 0-48 21.492188-48 48v96c0 26.507812 21.492188 48 48 48h128c26.507812 0 48-21.492188 48-48v-96c0-26.507812-21.492188-48-48-48zm-80 32h32v46.929688c-1.710938.625-3.507812.984374-5.328125 1.070312h-21.34375c-3.503906 0-5.121094-.71875-5.328125 0zm96 112c0 8.835938-7.164062 16-16 16h-128c-8.835938 0-16-7.164062-16-16v-96c0-8.835938 7.164062-16 16-16h16v48c.386719 9.316406 4.625 18.050781 11.703125 24.121094 7.078125 6.066406 16.359375 8.921875 25.625 7.878906h21.34375c9.238281.917969 18.453125-1.980469 25.5-8.023438 7.050781-6.042968 11.324219-14.707031 11.828125-23.976562v-48h16c8.835938 0 16 7.164062 16 16zm0 0"></path></g></svg>